<?xml version="1.0" standalone="no"?>
<!DOCTYPE svg PUBLIC "-//W3C//DTD SVG 20010904//EN"
 "http://www.w3.org/TR/2001/REC-SVG-20010904/DTD/svg10.dtd">
<svg version="1.0" xmlns="http://www.w3.org/2000/svg"
 width="374.000000pt" height="148.000000pt" viewBox="0 0 374.000000 148.000000"
 preserveAspectRatio="xMidYMid meet">

<g transform="translate(0.000000,148.000000) scale(0.100000,-0.100000)"
fill="#000000" stroke="none">
<path d="M1640 1437 l0 -47 80 6 80 7 -2 -249 c-3 -247 -3 -248 -26 -260 -42
-21 -35 -24 51 -24 51 0 87 4 87 10 0 6 -9 10 -20 10 -36 0 -40 30 -38 272 l3
233 87 5 c79 5 109 12 97 24 -2 3 -85 8 -184 11 -168 6 -181 8 -197 28 -17 22
-18 21 -18 -26z"/>
<path d="M0 1425 l0 -25 120 0 c79 0 132 -5 153 -14 47 -19 93 -77 113 -141
43 -134 -38 -301 -143 -297 -79 3 -75 -10 -71 213 2 163 1 198 -10 194 -8 -3
-18 -5 -23 -5 -5 0 -9 -77 -9 -179 0 -188 -7 -229 -40 -238 -11 -3 -20 -9 -20
-13 0 -11 211 -10 246 1 132 41 180 316 75 432 -56 63 -97 77 -228 77 -61 0
-123 4 -137 10 -24 9 -26 7 -26 -15z"/>
<path d="M3237 1423 c-17 -16 -2 -21 61 -19 107 2 152 -35 152 -124 0 -48 -34
-90 -75 -90 -25 0 -25 0 -25 90 l0 90 -27 0 -28 0 3 -178 3 -178 -25 -23 c-19
-18 -36 -23 -75 -24 -80 0 -81 2 -81 185 l0 159 47 -3 c39 -2 50 -7 60 -28 12
-23 13 -22 13 26 l0 50 -202 -4 c-124 -3 -218 0 -240 6 l-38 10 0 -51 c0 -51
1 -52 18 -30 12 16 29 23 62 25 l45 3 3 -169 c2 -140 0 -172 -13 -186 -21 -23
-10 -30 51 -30 59 0 79 15 39 30 l-25 10 2 171 3 172 25 3 c14 2 42 6 63 9
l37 5 -2 -182 c-3 -179 -4 -183 -25 -193 -44 -19 -22 -25 96 -25 95 0 123 3
135 16 15 14 16 13 16 -6 0 -13 -8 -24 -20 -27 -44 -12 -16 -23 55 -23 77 0
92 8 53 25 -22 9 -23 16 -26 133 -2 98 0 122 11 122 8 0 43 -46 78 -102 73
-118 110 -163 150 -184 31 -15 149 -20 149 -5 0 6 -17 10 -38 9 -22 0 -48 5
-59 11 -12 6 -64 70 -117 143 l-97 132 25 20 c33 29 46 58 46 106 0 93 -50
130 -177 130 -44 0 -83 -3 -86 -7z"/>
<path d="M2216 1380 c-24 -29 -26 -39 -26 -121 l0 -90 -87 3 -88 3 -3 86 -3
87 -37 6 c-20 3 -43 6 -49 6 -23 0 -13 -15 17 -27 l30 -11 0 -181 c0 -161 -2
-181 -17 -190 -14 -8 -3 -10 45 -11 40 0 61 4 57 10 -3 6 -13 10 -21 10 -11 0
-14 18 -14 90 l0 90 86 0 86 0 -4 -105 -4 -105 175 2 174 3 9 30 c28 92 101
295 107 295 4 0 33 -73 66 -162 33 -93 68 -174 81 -188 20 -20 35 -25 94 -28
47 -3 70 -1 70 7 0 6 -15 11 -33 11 -59 0 -87 42 -175 270 -47 121 -87 209
-98 217 -24 15 -98 21 -102 8 -1 -5 8 -12 20 -13 30 -5 58 -30 58 -53 0 -34
-110 -334 -127 -346 -9 -7 -39 -13 -65 -13 -43 0 -50 3 -59 26 -5 15 -8 92 -7
172 l3 145 38 0 c20 -1 41 -2 47 -2 5 -1 16 -13 24 -28 l15 -28 1 50 0 50
-110 0 c-60 0 -110 -3 -110 -6 0 -3 12 -11 26 -18 l26 -11 -3 -169 c-4 -178
-10 -201 -53 -201 -38 0 -46 19 -46 105 0 72 2 82 22 94 l22 14 -22 8 c-20 8
-22 15 -22 93 0 47 5 97 10 112 15 38 7 40 -24 4z"/>
<path d="M1077 1372 c-10 -19 -48 -109 -84 -200 -36 -92 -72 -175 -80 -184
-19 -21 -92 -25 -111 -6 -8 8 -12 60 -12 170 l0 158 24 6 c46 11 70 1 81 -33
14 -49 25 -40 25 20 l0 52 -110 -1 c-61 0 -113 -4 -117 -7 -3 -4 -1 -7 5 -7 6
0 18 -7 26 -16 13 -13 16 -44 16 -181 0 -127 -3 -164 -12 -161 -7 2 -35 37
-62 76 l-50 72 24 25 c19 20 25 39 28 88 4 57 2 64 -22 86 -23 22 -37 25 -116
28 -85 3 -117 -7 -70 -22 19 -6 20 -15 20 -191 0 -182 0 -185 -23 -194 -27
-11 -23 -12 53 -13 58 0 89 15 43 21 -23 3 -23 4 -23 188 0 176 1 184 19 184
11 0 33 -11 48 -24 24 -21 28 -32 28 -74 0 -58 -17 -82 -56 -82 -33 0 -37 -10
-10 -27 10 -6 31 -33 46 -60 43 -75 117 -169 151 -192 22 -15 46 -21 89 -21
58 0 69 11 17 18 -15 2 -43 15 -62 30 l-35 27 89 5 89 5 58 164 c32 90 60 166
63 168 3 3 8 -8 11 -23 29 -126 71 -269 85 -286 12 -16 32 -22 73 -26 39 -3
57 -1 57 7 0 6 -7 14 -15 17 -12 5 -15 26 -14 103 0 53 4 116 7 141 l7 45 53
-109 c28 -60 52 -122 52 -139 0 -43 12 -27 53 68 19 44 45 103 58 130 l24 50
5 -150 5 -150 27 -9 c32 -11 120 3 125 21 3 8 -6 10 -31 6 -25 -4 -44 0 -61
11 l-26 17 3 190 c2 149 0 189 -10 189 -7 0 -21 -19 -31 -42 -10 -24 -40 -88
-66 -143 l-47 -100 -67 135 -66 135 -38 3 c-41 4 -48 -6 -18 -25 18 -11 19
-22 15 -165 -6 -184 -10 -207 -28 -187 -29 30 -99 282 -108 389 l-3 35 -18
-33z"/>
<path d="M843 1183 c-35 -3 -43 -8 -43 -24 0 -15 7 -19 36 -19 27 0 37 -5 41
-20 9 -36 23 -21 23 25 0 25 -3 44 -7 43 -5 -1 -27 -3 -50 -5z"/>
<path d="M1657 1158 c9 -18 17 -35 19 -36 3 -4 34 53 34 63 0 3 -15 5 -34 5
l-34 0 15 -32z"/>
<path d="M2438 1183 c-40 -3 -48 -8 -48 -24 0 -16 7 -19 41 -19 32 0 42 -4 46
-20 9 -36 23 -21 23 25 0 25 -3 44 -7 43 -5 -1 -29 -3 -55 -5z"/>
<path d="M3134 1175 c-10 -24 5 -35 47 -35 28 0 39 -4 39 -15 0 -8 5 -15 10
-15 6 0 10 17 10 39 l0 38 -50 2 c-36 0 -52 -4 -56 -14z"/>
<path d="M1690 760 c0 -5 11 -10 24 -10 28 0 86 -19 86 -29 0 -6 -19 -11 -130
-36 -14 -3 -19 -3 -12 1 33 15 3 24 -84 24 -61 0 -93 -4 -89 -10 3 -5 17 -10
30 -10 15 0 31 -10 40 -24 15 -23 14 -25 -48 -87 -72 -72 -97 -128 -97 -216 0
-86 48 -178 122 -232 35 -26 37 -30 24 -44 -9 -8 -29 -18 -46 -22 -66 -14 -24
-25 100 -25 80 0 130 -4 130 -10 0 -5 -11 -10 -25 -10 -14 0 -25 -4 -25 -10 0
-6 63 -10 170 -10 107 0 170 4 170 10 0 6 -9 10 -21 10 -11 0 -17 5 -14 10 4
6 57 10 126 10 113 0 153 11 90 25 -53 11 -55 29 -8 63 109 77 153 212 110
338 -12 36 -34 67 -85 117 -37 37 -68 69 -68 71 0 14 35 36 56 36 13 0 24 5
24 10 0 6 -38 10 -95 10 -61 0 -95 -4 -95 -11 0 -6 -9 -8 -21 -4 -11 4 -42 10
-67 14 l-47 7 32 17 c18 9 46 17 63 17 16 0 30 5 30 10 0 6 -65 10 -175 10
-110 0 -175 -4 -175 -10z m150 -176 c0 -85 -3 -100 -26 -140 -14 -24 -30 -46
-35 -49 -5 -3 -34 46 -66 109 -43 87 -55 118 -46 127 16 16 112 48 146 49 l27
0 0 -96z m167 76 c31 -11 58 -22 61 -25 6 -6 -109 -254 -118 -254 -3 -1 -17
19 -33 44 -25 42 -27 54 -27 150 l0 105 30 0 c17 0 56 -9 87 -20z m-271 -314
c3 -14 -12 -47 -45 -100 -28 -44 -55 -84 -61 -90 -11 -11 -15 370 -3 400 5 14
19 -9 55 -85 27 -57 51 -113 54 -125z m364 12 c-1 -242 4 -237 -78 -101 l-43
70 41 92 c47 108 69 151 75 151 3 0 5 -96 5 -212z m113 127 c17 -31 22 -57 22
-120 0 -82 -11 -116 -56 -174 -19 -23 -19 -21 -19 175 1 218 0 217 53 119z
m-643 -121 c0 -194 -5 -205 -50 -102 -29 69 -25 174 10 236 13 23 27 42 32 42
4 0 8 -79 8 -176z m270 -24 c0 -55 -19 -68 -37 -27 -8 17 -7 29 5 50 24 39 32
33 32 -23z m80 -29 c-18 -35 -30 -23 -30 32 l0 52 21 -32 c16 -25 18 -36 9
-52z m-131 -78 c14 -31 27 -83 29 -116 l5 -60 -46 6 c-25 4 -61 14 -81 23 -47
23 -44 41 29 156 17 26 32 47 35 48 3 0 16 -26 29 -57z m213 -5 c31 -48 58
-107 58 -129 0 -10 -131 -50 -142 -43 -17 11 -8 114 15 169 12 30 25 55 28 55
3 0 22 -24 41 -52z"/>
</g>
</svg>
